<svg viewBox="0 0 144 25" xmlns="http://www.w3.org/2000/svg" xmlns:xlink="http://www.w3.org/1999/xlink">
  <title>Origamid</title>
  <use xlink:href="#a" fill="#000"/>
  <use xlink:href="#b" transform="translate(28 .4)" fill="#000"/>
  <use xlink:href="#c" transform="translate(47 .4)" fill="#000"/>
  <use xlink:href="#d" transform="translate(87 .4)" fill="#000"/>
  <use xlink:href="#c" transform="translate(116 .4)" fill="#000"/>
  <use xlink:href="#e" transform="translate(123.3 .4)" fill="#000"/>
  <use xlink:href="#f" transform="translate(54.195)" fill="#a494f5"/>
  <use xlink:href="#g" transform="translate(62.6 .4)" fill="#000"/>
  <defs>
    <path id="a" d="M12.3 24.6C5.5 24.6 0 19.1 0 12.3 0 5.4 5.5 0 12.3 0c6.9 0 12.3 5.5 12.3 12.4 0 6.7-5.5 12.2-12.3 12.2zm0-21.4c-3.7 0-6.6 2-8 5.3-.5 1.2-.8 2.5-.8 3.8 0 1.3.3 2.6.8 3.8 1.5 3.3 4.4 5.3 8 5.3 3.9 0 6.9-2.2 8.3-5.9.4-1 .6-2.1.6-3.2 0-4.9-3.7-9.1-8.9-9.1z"/>
    <path id="b" d="M11.3 14.4c-.7.3-1.5.4-2.3.4l6.6 8.8h-4.3l-7.8-11h-.1v11H0V0h7.3c2.2 0 4.6.4 6.3 2 1.5 1.5 2.2 3.6 2.2 5.6 0 3.2-1.4 5.8-4.5 6.8zM7.1 3.2H3.5v9.1h2.4c3.1 0 6.5-.9 6.5-4.6 0-3.1-2.5-4.5-5.3-4.5z"/>
    <path id="c" d="M0 23.7V0h3.5v23.7H0z"/>
    <path id="d" d="M21.7 23.7v-20h-.1l-8 20h-2.1l-8-20h-.1v20H0V0h5.4l7.1 18.1L19.6 0H25v23.7h-3.3z"/>
    <path id="e" d="M16.8 20.3c-2.6 2.6-5.7 3.4-9.2 3.4H0V0h7.7c3.8 0 7.4 1.2 9.7 4.4 1.5 2.1 2.4 4.9 2.4 7.6 0 2.7-1 6.3-3 8.3zm-1.1-12c-1.4-3.4-4.3-5.1-8-5.1H3.5v17.4h4.1c5.4 0 8.7-3.1 8.7-8.6.1-1.3-.2-2.5-.6-3.7z"/>
    <path id="f" d="M9.205 15.8v-3.2h16.2v1.5c-1 5.1-4.6 10.3-12.6 10.5h-.5c-1.282 0-2.481-.168-3.596-.504l-.004.004c-5.5-1.6-8.7-6.7-8.7-11.7-.2-7.1 5.2-12.4 11.9-12.4 4 0 6.8 1.2 9.2 3.4l-2 2.7c-1-1.1-3.6-2.9-7.1-2.9-4.8 0-8.8 3.8-8.8 9.2 0 4.484 3.277 7.975 7.06 8.89l.04.01 4.3-.1c.142-.033.284-.068.425-.106 2.455-.663 4.846-2.174 6.075-5.294h-11.9z"/>
    <path id="g" d="M3.9 24.2h.5L16.9 4.5h.1v19.2h3.5V0h-4.3C10.801 7.865 5.49 15.798 0 23.6c.1.034.202.066.304.096 1.115.336 2.313.504 3.596.504z"/>
  </defs>
</svg>